<?xml version="1.0" standalone="no"?>
<svg xmlns="http://www.w3.org/2000/svg" width="512" height="512"><defs><clipPath id="clip-path-dot-color"><path d="M 15 119v 13h 13v -6.5a 6.5 6.5, 0, 0, 0, -6.5 -6.5" transform="rotate(-90,21.5,125.5)"/><path d="M 15 158v 6.5a 6.5 6.5, 0, 0, 0, 6.5 6.5h 6.5v -6.5a 6.5 6.5, 0, 0, 0, -6.5 -6.5" transform="rotate(90,21.5,164.5)"/><path d="M 15 197v 13h 13v -6.5a 6.5 6.5, 0, 0, 0, -6.5 -6.5" transform="rotate(-90,21.5,203.5)"/><rect x="15" y="210" width="13" height="13" transform="rotate(0,21.5,216.5)"/><path d="M 15 223v 13h 13v -6.5a 6.5 6.5, 0, 0, 0, -6.5 -6.5" transform="rotate(90,21.5,229.5)"/><path d="M 15 249v 6.5a 6.5 6.5, 0, 0, 0, 6.5 6.5h 6.5v -6.5a 6.5 6.5, 0, 0, 0, -6.5 -6.5" transform="rotate(90,21.5,255.5)"/><path d="M 15 275v 13h 13v -6.5a 6.5 6.5, 0, 0, 0, -6.5 -6.5" transform="rotate(-90,21.5,281.5)"/><path d="M 15 288v 13h 13v -6.5a 6.5 6.5, 0, 0, 0, -6.5 -6.5" transform="rotate(90,21.5,294.5)"/><path d="M 15 340v 6.5a 6.5 6.5, 0, 0, 0, 6.5 6.5h 6.5v -6.5a 6.5 6.5, 0, 0, 0, -6.5 -6.5" transform="rotate(90,21.5,346.5)"/><path d="M 15 379v 13h 13v -6.5a 6.5 6.5, 0, 0, 0, -6.5 -6.5" transform="rotate(-90,21.5,385.5)"/><rect x="28" y="119" width="13" height="13" transform="rotate(0,34.5,125.5)"/><rect x="28" y="210" width="13" height="13" transform="rotate(0,34.5,216.5)"/><rect x="28" y="275" width="13" height="13" transform="rotate(0,34.5,281.5)"/><path d="M 28 301v 6.5a 6.5 6.5, 0, 0, 0, 6.5 6.5h 6.5v -6.5a 6.5 6.5, 0, 0, 0, -6.5 -6.5" transform="rotate(90,34.5,307.5)"/><path d="M 28 327v 6.5a 6.5 6.5, 0, 0, 0, 6.5 6.5h 6.5v -6.5a 6.5 6.5, 0, 0, 0, -6.5 -6.5" transform="rotate(90,34.5,333.5)"/><path d="M 28 366v 13h 13v -6.5a 6.5 6.5, 0, 0, 0, -6.5 -6.5" transform="rotate(-90,34.5,372.5)"/><rect x="28" y="379" width="13" height="13" transform="rotate(0,34.5,385.5)"/><path d="M 41 119v 13h 13v -6.5a 6.5 6.5, 0, 0, 0, -6.5 -6.5" transform="rotate(90,47.5,125.5)"/><path d="M 41 145v 6.5a 6.5 6.5, 0, 0, 0, 6.5 6.5h 6.5v -6.5a 6.5 6.5, 0, 0, 0, -6.5 -6.5" transform="rotate(90,47.5,151.5)"/><path d="M 41 171v 13h 13v -6.5a 6.5 6.5, 0, 0, 0, -6.5 -6.5" transform="rotate(-90,47.5,177.5)"/><rect x="41" y="210" width="13" height="13" transform="rotate(0,47.5,216.5)"/><rect x="41" y="223" width="13" height="13" transform="rotate(0,47.5,229.5)"/><rect x="41" y="236" width="13" height="13" transform="rotate(0,47.5,242.5)"/><path d="M 41 249v 13h 13v -6.5a 6.5 6.5, 0, 0, 0, -6.5 -6.5" transform="rotate(90,47.5,255.5)"/><rect x="41" y="275" width="13" height="13" transform="rotate(0,47.5,281.5)"/><path d="M 41 288v 13h 13v -6.5a 6.5 6.5, 0, 0, 0, -6.5 -6.5" transform="rotate(90,47.5,294.5)"/><path d="M 41 353v 13h 13v -6.5a 6.5 6.5, 0, 0, 0, -6.5 -6.5" transform="rotate(-90,47.5,359.5)"/><path d="M 41 379v 13h 13v -6.5a 6.5 6.5, 0, 0, 0, -6.5 -6.5" transform="rotate(90,47.5,385.5)"/><path d="M 54 158v 13h 13v -6.5a 6.5 6.5, 0, 0, 0, -6.5 -6.5" transform="rotate(-90,60.5,164.5)"/><rect x="54" y="171" width="13" height="13" transform="rotate(0,60.5,177.5)"/><rect x="54" y="184" width="13" height="13" transform="rotate(0,60.5,190.5)"/><rect x="54" y="197" width="13" height="13" transform="rotate(0,60.5,203.5)"/><rect x="54" y="236" width="13" height="13" transform="rotate(0,60.5,242.5)"/><path d="M 54 314v 6.5a 6.5 6.5, 0, 0, 0, 6.5 6.5h 6.5v -6.5a 6.5 6.5, 0, 0, 0, -6.5 -6.5" transform="rotate(90,60.5,320.5)"/><path d="M 54 340v 13h 13v -6.5a 6.5 6.5, 0, 0, 0, -6.5 -6.5" transform="rotate(-90,60.5,346.5)"/><path d="M 54 353v 13h 13v -6.5a 6.5 6.5, 0, 0, 0, -6.5 -6.5" transform="rotate(90,60.5,359.5)"/><path d="M 67 145v 13h 13v -6.5a 6.5 6.5, 0, 0, 0, -6.5 -6.5" transform="rotate(-90,73.5,151.5)"/><rect x="67" y="197" width="13" height="13" transform="rotate(0,73.5,203.5)"/><rect x="67" y="210" width="13" height="13" transform="rotate(0,73.5,216.5)"/><rect x="67" y="223" width="13" height="13" transform="rotate(0,73.5,229.5)"/><rect x="67" y="236" width="13" height="13" transform="rotate(0,73.5,242.5)"/><path d="M 67 262v 6.5a 6.5 6.5, 0, 0, 0, 6.5 6.5h 6.5v -6.5a 6.5 6.5, 0, 0, 0, -6.5 -6.5" transform="rotate(90,73.5,268.5)"/><path d="M 67 288v 13h 13v -6.5a 6.5 6.5, 0, 0, 0, -6.5 -6.5" transform="rotate(-90,73.5,294.5)"/><rect x="67" y="301" width="13" height="13" transform="rotate(0,73.5,307.5)"/><path d="M 80 119v 13h 13v -6.5a 6.5 6.5, 0, 0, 0, -6.5 -6.5" transform="rotate(-90,86.5,125.5)"/><rect x="80" y="132" width="13" height="13" transform="rotate(0,86.5,138.5)"/><rect x="80" y="145" width="13" height="13" transform="rotate(0,86.5,151.5)"/><path d="M 80 158v 13h 13v -6.5a 6.5 6.5, 0, 0, 0, -6.5 -6.5" transform="rotate(90,86.5,164.5)"/><path d="M 80 184v 13h 13v -6.5a 6.5 6.5, 0, 0, 0, -6.5 -6.5" transform="rotate(-90,86.5,190.5)"/><rect x="80" y="197" width="13" height="13" transform="rotate(0,86.5,203.5)"/><path d="M 80 210v 13h 13v -6.5a 6.5 6.5, 0, 0, 0, -6.5 -6.5" transform="rotate(90,86.5,216.5)"/><rect x="80" y="236" width="13" height="13" transform="rotate(0,86.5,242.5)"/><rect x="80" y="249" width="13" height="13" transform="rotate(0,86.5,255.5)"/><rect x="80" y="288" width="13" height="13" transform="rotate(0,86.5,294.5)"/><rect x="80" y="301" width="13" height="13" transform="rotate(0,86.5,307.5)"/><path d="M 80 314v 13h 13v -6.5a 6.5 6.5, 0, 0, 0, -6.5 -6.5" transform="rotate(90,86.5,320.5)"/><path d="M 80 366v 13h 13v -6.5a 6.5 6.5, 0, 0, 0, -6.5 -6.5" transform="rotate(-90,86.5,372.5)"/><rect x="80" y="379" width="13" height="13" transform="rotate(0,86.5,385.5)"/><rect x="93" y="119" width="13" height="13" transform="rotate(0,99.5,125.5)"/><path d="M 93 145v 13h 13v -6.5a 6.5 6.5, 0, 0, 0, -6.5 -6.5" transform="rotate(90,99.5,151.5)"/><path d="M 93 171v 13h 13v -6.5a 6.5 6.5, 0, 0, 0, -6.5 -6.5" transform="rotate(-90,99.5,177.5)"/><rect x="93" y="197" width="13" height="13" transform="rotate(0,99.5,203.5)"/><path d="M 93 223v 6.5a 6.5 6.5, 0, 0, 0, 6.5 6.5h 6.5v -6.5a 6.5 6.5, 0, 0, 0, -6.5 -6.5" transform="rotate(90,99.5,229.5)"/><rect x="93" y="249" width="13" height="13" transform="rotate(0,99.5,255.5)"/><path d="M 93 275v 6.5a 6.5 6.5, 0, 0, 0, 6.5 6.5h 6.5v -6.5a 6.5 6.5, 0, 0, 0, -6.5 -6.5" transform="rotate(90,99.5,281.5)"/><rect x="93" y="301" width="13" height="13" transform="rotate(0,99.5,307.5)"/><path d="M 93 327v 6.5a 6.5 6.5, 0, 0, 0, 6.5 6.5h 6.5v -6.5a 6.5 6.5, 0, 0, 0, -6.5 -6.5" transform="rotate(90,99.5,333.5)"/><path d="M 93 353v 13h 13v -6.5a 6.5 6.5, 0, 0, 0, -6.5 -6.5" transform="rotate(-90,99.5,359.5)"/><rect x="93" y="379" width="13" height="13" transform="rotate(0,99.5,385.5)"/><rect x="106" y="119" width="13" height="13" transform="rotate(0,112.5,125.5)"/><rect x="106" y="171" width="13" height="13" transform="rotate(0,112.5,177.5)"/><rect x="106" y="184" width="13" height="13" transform="rotate(0,112.5,190.5)"/><rect x="106" y="197" width="13" height="13" transform="rotate(0,112.5,203.5)"/><rect x="106" y="249" width="13" height="13" transform="rotate(0,112.5,255.5)"/><path d="M 106 262v 13h 13v -6.5a 6.5 6.5, 0, 0, 0, -6.5 -6.5" transform="rotate(90,112.5,268.5)"/><path d="M 106 301v 13h 13v -6.5a 6.5 6.5, 0, 0, 0, -6.5 -6.5" transform="rotate(90,112.5,307.5)"/><path d="M 106 353v 13h 13v -6.5a 6.5 6.5, 0, 0, 0, -6.5 -6.5" transform="rotate(90,112.5,359.5)"/><path d="M 106 379v 13h 13v -6.5a 6.5 6.5, 0, 0, 0, -6.5 -6.5" transform="rotate(90,112.5,385.5)"/><path d="M 119 41v 13h 13v -6.5a 6.5 6.5, 0, 0, 0, -6.5 -6.5" transform="rotate(-90,125.5,47.5)"/><rect x="119" y="54" width="13" height="13" transform="rotate(0,125.5,60.5)"/><rect x="119" y="67" width="13" height="13" transform="rotate(0,125.5,73.5)"/><path d="M 119 93v 6.5a 6.5 6.5, 0, 0, 0, 6.5 6.5h 6.5v -6.5a 6.5 6.5, 0, 0, 0, -6.5 -6.5" transform="rotate(90,125.5,99.5)"/><rect x="119" y="119" width="13" height="13" transform="rotate(0,125.5,125.5)"/><path d="M 119 158v 13h 13v -6.5a 6.5 6.5, 0, 0, 0, -6.5 -6.5" transform="rotate(-90,125.5,164.5)"/><path d="M 119 171v 13h 13v -6.5a 6.5 6.5, 0, 0, 0, -6.5 -6.5" transform="rotate(90,125.5,177.5)"/><rect x="119" y="197" width="13" height="13" transform="rotate(0,125.5,203.5)"/><path d="M 119 236v 13h 13v -6.5a 6.5 6.5, 0, 0, 0, -6.5 -6.5" transform="rotate(-90,125.5,242.5)"/><rect x="119" y="249" width="13" height="13" transform="rotate(0,125.5,255.5)"/><path d="M 119 327v 13h 13v -6.5a 6.5 6.5, 0, 0, 0, -6.5 -6.5" transform="rotate(-90,125.5,333.5)"/><path d="M 119 392v 13h 13v -6.5a 6.5 6.5, 0, 0, 0, -6.5 -6.5" transform="rotate(-90,125.5,398.5)"/><rect x="119" y="405" width="13" height="13" transform="rotate(0,125.5,411.5)"/><rect x="119" y="418" width="13" height="13" transform="rotate(0,125.5,424.5)"/><path d="M 119 457v 13h 13v -6.5a 6.5 6.5, 0, 0, 0, -6.5 -6.5" transform="rotate(-90,125.5,463.5)"/><rect x="119" y="470" width="13" height="13" transform="rotate(0,125.5,476.5)"/><path d="M 119 483v 13h 13v -6.5a 6.5 6.5, 0, 0, 0, -6.5 -6.5" transform="rotate(90,125.5,489.5)"/><rect x="132" y="41" width="13" height="13" transform="rotate(0,138.5,47.5)"/><rect x="132" y="67" width="13" height="13" transform="rotate(0,138.5,73.5)"/><path d="M 132 80v 13h 13v -6.5a 6.5 6.5, 0, 0, 0, -6.5 -6.5" transform="rotate(90,138.5,86.5)"/><rect x="132" y="119" width="13" height="13" transform="rotate(0,138.5,125.5)"/><path d="M 132 197v 13h 13v -6.5a 6.5 6.5, 0, 0, 0, -6.5 -6.5" transform="rotate(90,138.5,203.5)"/><path d="M 132 223v 13h 13v -6.5a 6.5 6.5, 0, 0, 0, -6.5 -6.5" transform="rotate(-90,138.5,229.5)"/><rect x="132" y="249" width="13" height="13" transform="rotate(0,138.5,255.5)"/><path d="M 132 301v 13h 13v -6.5a 6.5 6.5, 0, 0, 0, -6.5 -6.5" transform="rotate(-90,138.5,307.5)"/><rect x="132" y="314" width="13" height="13" transform="rotate(0,138.5,320.5)"/><rect x="132" y="327" width="13" height="13" transform="rotate(0,138.5,333.5)"/><rect x="132" y="340" width="13" height="13" transform="rotate(0,138.5,346.5)"/><rect x="132" y="353" width="13" height="13" transform="rotate(0,138.5,359.5)"/><rect x="132" y="366" width="13" height="13" transform="rotate(0,138.5,372.5)"/><rect x="132" y="379" width="13" height="13" transform="rotate(0,138.5,385.5)"/><path d="M 132 392v 13h 13v -6.5a 6.5 6.5, 0, 0, 0, -6.5 -6.5" transform="rotate(90,138.5,398.5)"/><rect x="132" y="418" width="13" height="13" transform="rotate(0,138.5,424.5)"/><rect x="132" y="470" width="13" height="13" transform="rotate(0,138.5,476.5)"/><rect x="145" y="41" width="13" height="13" transform="rotate(0,151.5,47.5)"/><rect x="145" y="54" width="13" height="13" transform="rotate(0,151.5,60.5)"/><rect x="145" y="67" width="13" height="13" transform="rotate(0,151.5,73.5)"/><path d="M 145 93v 6.5a 6.5 6.5, 0, 0, 0, 6.5 6.5h 6.5v -6.5a 6.5 6.5, 0, 0, 0, -6.5 -6.5" transform="rotate(90,151.5,99.5)"/><path d="M 145 119v 13h 13v -6.5a 6.5 6.5, 0, 0, 0, -6.5 -6.5" transform="rotate(90,151.5,125.5)"/><path d="M 145 145v 6.5a 6.5 6.5, 0, 0, 0, 6.5 6.5h 6.5v -6.5a 6.5 6.5, 0, 0, 0, -6.5 -6.5" transform="rotate(90,151.5,151.5)"/><path d="M 145 184v 13h 13v -6.5a 6.5 6.5, 0, 0, 0, -6.5 -6.5" transform="rotate(-90,151.5,190.5)"/><path d="M 145 210v 13h 13v -6.5a 6.5 6.5, 0, 0, 0, -6.5 -6.5" transform="rotate(-90,151.5,216.5)"/><rect x="145" y="223" width="13" height="13" transform="rotate(0,151.5,229.5)"/><rect x="145" y="236" width="13" height="13" transform="rotate(0,151.5,242.5)"/><rect x="145" y="249" width="13" height="13" transform="rotate(0,151.5,255.5)"/><path d="M 145 262v 13h 13v -6.5a 6.5 6.5, 0, 0, 0, -6.5 -6.5" transform="rotate(90,151.5,268.5)"/><path d="M 145 301v 13h 13v -6.5a 6.5 6.5, 0, 0, 0, -6.5 -6.5" transform="rotate(90,151.5,307.5)"/><rect x="145" y="340" width="13" height="13" transform="rotate(0,151.5,346.5)"/><rect x="145" y="353" width="13" height="13" transform="rotate(0,151.5,359.5)"/><path d="M 145 405v 13h 13v -6.5a 6.5 6.5, 0, 0, 0, -6.5 -6.5" transform="rotate(-90,151.5,411.5)"/><rect x="145" y="418" width="13" height="13" transform="rotate(0,151.5,424.5)"/><rect x="145" y="470" width="13" height="13" transform="rotate(0,151.5,476.5)"/><path d="M 145 483v 13h 13v -6.5a 6.5 6.5, 0, 0, 0, -6.5 -6.5" transform="rotate(90,151.5,489.5)"/><path d="M 158 15v 13h 13v -6.5a 6.5 6.5, 0, 0, 0, -6.5 -6.5" transform="rotate(-90,164.5,21.5)"/><rect x="158" y="28" width="13" height="13" transform="rotate(0,164.5,34.5)"/><path d="M 158 67v 13h 13v -6.5a 6.5 6.5, 0, 0, 0, -6.5 -6.5" transform="rotate(90,164.5,73.5)"/><path d="M 158 132v 13h 13v -6.5a 6.5 6.5, 0, 0, 0, -6.5 -6.5" transform="rotate(-90,164.5,138.5)"/><path d="M 158 158v 6.5a 6.5 6.5, 0, 0, 0, 6.5 6.5h 6.5v -6.5a 6.5 6.5, 0, 0, 0, -6.5 -6.5" transform="rotate(90,164.5,164.5)"/><path d="M 158 184v 13h 13v -6.5a 6.5 6.5, 0, 0, 0, -6.5 -6.5" transform="rotate(90,164.5,190.5)"/><rect x="158" y="210" width="13" height="13" transform="rotate(0,164.5,216.5)"/><rect x="158" y="223" width="13" height="13" transform="rotate(0,164.5,229.5)"/><rect x="158" y="236" width="13" height="13" transform="rotate(0,164.5,242.5)"/><path d="M 158 288v 13h 13v -6.5a 6.5 6.5, 0, 0, 0, -6.5 -6.5" transform="rotate(-90,164.5,294.5)"/><rect x="158" y="353" width="13" height="13" transform="rotate(0,164.5,359.5)"/><path d="M 158 379v 6.5a 6.5 6.5, 0, 0, 0, 6.5 6.5h 6.5v -6.5a 6.5 6.5, 0, 0, 0, -6.5 -6.5" transform="rotate(90,164.5,385.5)"/><rect x="158" y="405" width="13" height="13" transform="rotate(0,164.5,411.5)"/><path d="M 158 418v 13h 13v -6.5a 6.5 6.5, 0, 0, 0, -6.5 -6.5" transform="rotate(90,164.5,424.5)"/><rect x="171" y="15" width="13" height="13" transform="rotate(0,177.5,21.5)"/><rect x="171" y="28" width="13" height="13" transform="rotate(0,177.5,34.5)"/><path d="M 171 54v 13h 13v -6.5a 6.5 6.5, 0, 0, 0, -6.5 -6.5" transform="rotate(-90,177.5,60.5)"/><path d="M 171 80v 13h 13v -6.5a 6.5 6.5, 0, 0, 0, -6.5 -6.5" transform="rotate(-90,177.5,86.5)"/><rect x="171" y="93" width="13" height="13" transform="rotate(0,177.5,99.5)"/><rect x="171" y="106" width="13" height="13" transform="rotate(0,177.5,112.5)"/><rect x="171" y="119" width="13" height="13" transform="rotate(0,177.5,125.5)"/><path d="M 171 132v 13h 13v -6.5a 6.5 6.5, 0, 0, 0, -6.5 -6.5" transform="rotate(90,177.5,138.5)"/><path d="M 171 171v 6.5a 6.5 6.5, 0, 0, 0, 6.5 6.5h 6.5v -6.5a 6.5 6.5, 0, 0, 0, -6.5 -6.5" transform="rotate(90,177.5,177.5)"/><path d="M 171 197v 13h 13v -6.5a 6.5 6.5, 0, 0, 0, -6.5 -6.5" transform="rotate(-90,177.5,203.5)"/><rect x="171" y="210" width="13" height="13" transform="rotate(0,177.5,216.5)"/><rect x="171" y="223" width="13" height="13" transform="rotate(0,177.5,229.5)"/><rect x="171" y="236" width="13" height="13" transform="rotate(0,177.5,242.5)"/><rect x="171" y="249" width="13" height="13" transform="rotate(0,177.5,255.5)"/><rect x="171" y="262" width="13" height="13" transform="rotate(0,177.5,268.5)"/><rect x="171" y="275" width="13" height="13" transform="rotate(0,177.5,281.5)"/><rect x="171" y="288" width="13" height="13" transform="rotate(0,177.5,294.5)"/><rect x="171" y="301" width="13" height="13" transform="rotate(0,177.5,307.5)"/><path d="M 171 327v 13h 13v -6.5a 6.5 6.5, 0, 0, 0, -6.5 -6.5" transform="rotate(-90,177.5,333.5)"/><rect x="171" y="340" width="13" height="13" transform="rotate(0,177.5,346.5)"/><path d="M 171 353v 13h 13v -6.5a 6.5 6.5, 0, 0, 0, -6.5 -6.5" transform="rotate(90,177.5,359.5)"/><path d="M 171 392v 13h 13v -6.5a 6.5 6.5, 0, 0, 0, -6.5 -6.5" transform="rotate(-90,177.5,398.5)"/><path d="M 171 405v 13h 13v -6.5a 6.5 6.5, 0, 0, 0, -6.5 -6.5" transform="rotate(90,177.5,411.5)"/><path d="M 171 431v 13h 13v -6.5a 6.5 6.5, 0, 0, 0, -6.5 -6.5" transform="rotate(-90,177.5,437.5)"/><rect x="171" y="444" width="13" height="13" transform="rotate(0,177.5,450.5)"/><rect x="171" y="457" width="13" height="13" transform="rotate(0,177.5,463.5)"/><path d="M 171 470v 13h 13v -6.5a 6.5 6.5, 0, 0, 0, -6.5 -6.5" transform="rotate(90,177.5,476.5)"/><rect x="184" y="28" width="13" height="13" transform="rotate(0,190.5,34.5)"/><rect x="184" y="41" width="13" height="13" transform="rotate(0,190.5,47.5)"/><rect x="184" y="54" width="13" height="13" transform="rotate(0,190.5,60.5)"/><rect x="184" y="67" width="13" height="13" transform="rotate(0,190.5,73.5)"/><rect x="184" y="80" width="13" height="13" transform="rotate(0,190.5,86.5)"/><path d="M 184 158v 13h 13v -6.5a 6.5 6.5, 0, 0, 0, -6.5 -6.5" transform="rotate(-90,190.5,164.5)"/><path d="M 184 184v 13h 13v -6.5a 6.5 6.5, 0, 0, 0, -6.5 -6.5" transform="rotate(-90,190.5,190.5)"/><rect x="184" y="197" width="13" height="13" transform="rotate(0,190.5,203.5)"/><rect x="184" y="210" width="13" height="13" transform="rotate(0,190.5,216.5)"/><path d="M 184 223v 13h 13v -6.5a 6.5 6.5, 0, 0, 0, -6.5 -6.5" transform="rotate(90,190.5,229.5)"/><rect x="184" y="249" width="13" height="13" transform="rotate(0,190.5,255.5)"/><rect x="184" y="275" width="13" height="13" transform="rotate(0,190.5,281.5)"/><rect x="184" y="288" width="13" height="13" transform="rotate(0,190.5,294.5)"/><rect x="184" y="301" width="13" height="13" transform="rotate(0,190.5,307.5)"/><rect x="184" y="327" width="13" height="13" transform="rotate(0,190.5,333.5)"/><path d="M 184 340v 13h 13v -6.5a 6.5 6.5, 0, 0, 0, -6.5 -6.5" transform="rotate(90,190.5,346.5)"/><path d="M 184 379v 13h 13v -6.5a 6.5 6.5, 0, 0, 0, -6.5 -6.5" transform="rotate(-90,190.5,385.5)"/><rect x="184" y="392" width="13" height="13" transform="rotate(0,190.5,398.5)"/><path d="M 184 418v 6.5a 6.5 6.5, 0, 0, 0, 6.5 6.5h 6.5v -6.5a 6.5 6.5, 0, 0, 0, -6.5 -6.5" transform="rotate(90,190.5,424.5)"/><rect x="184" y="444" width="13" height="13" transform="rotate(0,190.5,450.5)"/><path d="M 184 457v 13h 13v -6.5a 6.5 6.5, 0, 0, 0, -6.5 -6.5" transform="rotate(90,190.5,463.5)"/><rect x="197" y="80" width="13" height="13" transform="rotate(0,203.5,86.5)"/><path d="M 197 93v 13h 13v -6.5a 6.5 6.5, 0, 0, 0, -6.5 -6.5" transform="rotate(90,203.5,99.5)"/><path d="M 197 119v 6.5a 6.5 6.5, 0, 0, 0, 6.5 6.5h 6.5v -6.5a 6.5 6.5, 0, 0, 0, -6.5 -6.5" transform="rotate(90,203.5,125.5)"/><path d="M 197 158v 13h 13v -6.5a 6.5 6.5, 0, 0, 0, -6.5 -6.5" transform="rotate(90,203.5,164.5)"/><rect x="197" y="184" width="13" height="13" transform="rotate(0,203.5,190.5)"/><path d="M 197 210v 13h 13v -6.5a 6.5 6.5, 0, 0, 0, -6.5 -6.5" transform="rotate(90,203.5,216.5)"/><path d="M 197 236v 13h 13v -6.5a 6.5 6.5, 0, 0, 0, -6.5 -6.5" transform="rotate(-90,203.5,242.5)"/><rect x="197" y="249" width="13" height="13" transform="rotate(0,203.5,255.5)"/><rect x="197" y="262" width="13" height="13" transform="rotate(0,203.5,268.5)"/><rect x="197" y="288" width="13" height="13" transform="rotate(0,203.5,294.5)"/><rect x="197" y="301" width="13" height="13" transform="rotate(0,203.5,307.5)"/><rect x="197" y="327" width="13" height="13" transform="rotate(0,203.5,333.5)"/><path d="M 197 353v 13h 13v -6.5a 6.5 6.5, 0, 0, 0, -6.5 -6.5" transform="rotate(-90,203.5,359.5)"/><rect x="197" y="366" width="13" height="13" transform="rotate(0,203.5,372.5)"/><rect x="197" y="392" width="13" height="13" transform="rotate(0,203.5,398.5)"/><rect x="197" y="405" width="13" height="13" transform="rotate(0,203.5,411.5)"/><path d="M 197 444v 13h 13v -6.5a 6.5 6.5, 0, 0, 0, -6.5 -6.5" transform="rotate(90,203.5,450.5)"/><path d="M 197 470v 13h 13v -6.5a 6.5 6.5, 0, 0, 0, -6.5 -6.5" transform="rotate(-90,203.5,476.5)"/><path d="M 197 483v 13h 13v -6.5a 6.5 6.5, 0, 0, 0, -6.5 -6.5" transform="rotate(90,203.5,489.5)"/><path d="M 210 15v 13h 13v -6.5a 6.5 6.5, 0, 0, 0, -6.5 -6.5" transform="rotate(-90,216.5,21.5)"/><rect x="210" y="28" width="13" height="13" transform="rotate(0,216.5,34.5)"/><path d="M 210 67v 13h 13v -6.5a 6.5 6.5, 0, 0, 0, -6.5 -6.5" transform="rotate(-90,216.5,73.5)"/><path d="M 210 106v 6.5a 6.5 6.5, 0, 0, 0, 6.5 6.5h 6.5v -6.5a 6.5 6.5, 0, 0, 0, -6.5 -6.5" transform="rotate(90,216.5,112.5)"/><path d="M 210 145v 13h 13v -6.5a 6.5 6.5, 0, 0, 0, -6.5 -6.5" transform="rotate(-90,216.5,151.5)"/><rect x="210" y="184" width="13" height="13" transform="rotate(0,216.5,190.5)"/><rect x="210" y="197" width="13" height="13" transform="rotate(0,216.5,203.5)"/><path d="M 210 223v 6.5a 6.5 6.5, 0, 0, 0, 6.5 6.5h 6.5v -6.5a 6.5 6.5, 0, 0, 0, -6.5 -6.5" transform="rotate(90,216.5,229.5)"/><path d="M 210 262v 13h 13v -6.5a 6.5 6.5, 0, 0, 0, -6.5 -6.5" transform="rotate(90,216.5,268.5)"/><rect x="210" y="288" width="13" height="13" transform="rotate(0,216.5,294.5)"/><rect x="210" y="301" width="13" height="13" transform="rotate(0,216.5,307.5)"/><rect x="210" y="314" width="13" height="13" transform="rotate(0,216.5,320.5)"/><path d="M 210 327v 13h 13v -6.5a 6.5 6.5, 0, 0, 0, -6.5 -6.5" transform="rotate(90,216.5,333.5)"/><rect x="210" y="353" width="13" height="13" transform="rotate(0,216.5,359.5)"/><rect x="210" y="366" width="13" height="13" transform="rotate(0,216.5,372.5)"/><path d="M 210 379v 13h 13v -6.5a 6.5 6.5, 0, 0, 0, -6.5 -6.5" transform="rotate(90,216.5,385.5)"/><rect x="210" y="405" width="13" height="13" transform="rotate(0,216.5,411.5)"/><path d="M 210 418v 13h 13v -6.5a 6.5 6.5, 0, 0, 0, -6.5 -6.5" transform="rotate(90,216.5,424.5)"/><path d="M 210 470v 13h 13v -6.5a 6.5 6.5, 0, 0, 0, -6.5 -6.5" transform="rotate(90,216.5,476.5)"/><rect x="223" y="15" width="13" height="13" transform="rotate(0,229.5,21.5)"/><rect x="223" y="28" width="13" height="13" transform="rotate(0,229.5,34.5)"/><rect x="223" y="67" width="13" height="13" transform="rotate(0,229.5,73.5)"/><rect x="223" y="80" width="13" height="13" transform="rotate(0,229.5,86.5)"/><path d="M 223 93v 13h 13v -6.5a 6.5 6.5, 0, 0, 0, -6.5 -6.5" transform="rotate(90,229.5,99.5)"/><path d="M 223 119v 13h 13v -6.5a 6.5 6.5, 0, 0, 0, -6.5 -6.5" transform="rotate(-90,229.5,125.5)"/><rect x="223" y="132" width="13" height="13" transform="rotate(0,229.5,138.5)"/><rect x="223" y="145" width="13" height="13" transform="rotate(0,229.5,151.5)"/><rect x="223" y="158" width="13" height="13" transform="rotate(0,229.5,164.5)"/><rect x="223" y="184" width="13" height="13" transform="rotate(0,229.5,190.5)"/><rect x="223" y="197" width="13" height="13" transform="rotate(0,229.5,203.5)"/><path d="M 223 249v 13h 13v -6.5a 6.5 6.5, 0, 0, 0, -6.5 -6.5" transform="rotate(-90,229.5,255.5)"/><path d="M 223 275v 13h 13v -6.5a 6.5 6.5, 0, 0, 0, -6.5 -6.5" transform="rotate(-90,229.5,281.5)"/><path d="M 223 340v 13h 13v -6.5a 6.5 6.5, 0, 0, 0, -6.5 -6.5" transform="rotate(-90,229.5,346.5)"/><path d="M 223 405v 13h 13v -6.5a 6.5 6.5, 0, 0, 0, -6.5 -6.5" transform="rotate(90,229.5,411.5)"/><path d="M 223 431v 6.5a 6.5 6.5, 0, 0, 0, 6.5 6.5h 6.5v -6.5a 6.5 6.5, 0, 0, 0, -6.5 -6.5" transform="rotate(90,229.5,437.5)"/><path d="M 223 457v 6.5a 6.5 6.5, 0, 0, 0, 6.5 6.5h 6.5v -6.5a 6.5 6.5, 0, 0, 0, -6.5 -6.5" transform="rotate(90,229.5,463.5)"/><path d="M 223 483v 6.5a 6.5 6.5, 0, 0, 0, 6.5 6.5h 6.5v -6.5a 6.5 6.5, 0, 0, 0, -6.5 -6.5" transform="rotate(90,229.5,489.5)"/><rect x="236" y="15" width="13" height="13" transform="rotate(0,242.5,21.5)"/><rect x="236" y="28" width="13" height="13" transform="rotate(0,242.5,34.5)"/><rect x="236" y="41" width="13" height="13" transform="rotate(0,242.5,47.5)"/><rect x="236" y="67" width="13" height="13" transform="rotate(0,242.5,73.5)"/><rect x="236" y="80" width="13" height="13" transform="rotate(0,242.5,86.5)"/><path d="M 236 106v 13h 13v -6.5a 6.5 6.5, 0, 0, 0, -6.5 -6.5" transform="rotate(-90,242.5,112.5)"/><rect x="236" y="145" width="13" height="13" transform="rotate(0,242.5,151.5)"/><rect x="236" y="158" width="13" height="13" transform="rotate(0,242.5,164.5)"/><rect x="236" y="171" width="13" height="13" transform="rotate(0,242.5,177.5)"/><rect x="236" y="184" width="13" height="13" transform="rotate(0,242.5,190.5)"/><rect x="236" y="197" width="13" height="13" transform="rotate(0,242.5,203.5)"/><path d="M 236 236v 13h 13v -6.5a 6.5 6.5, 0, 0, 0, -6.5 -6.5" transform="rotate(-90,242.5,242.5)"/><rect x="236" y="249" width="13" height="13" transform="rotate(0,242.5,255.5)"/><rect x="236" y="275" width="13" height="13" transform="rotate(0,242.5,281.5)"/><path d="M 236 301v 13h 13v -6.5a 6.5 6.5, 0, 0, 0, -6.5 -6.5" transform="rotate(-90,242.5,307.5)"/><rect x="236" y="314" width="13" height="13" transform="rotate(0,242.5,320.5)"/><rect x="236" y="327" width="13" height="13" transform="rotate(0,242.5,333.5)"/><rect x="236" y="340" width="13" height="13" transform="rotate(0,242.5,346.5)"/><path d="M 236 379v 13h 13v -6.5a 6.5 6.5, 0, 0, 0, -6.5 -6.5" transform="rotate(-90,242.5,385.5)"/><path d="M 236 418v 6.5a 6.5 6.5, 0, 0, 0, 6.5 6.5h 6.5v -6.5a 6.5 6.5, 0, 0, 0, -6.5 -6.5" transform="rotate(90,242.5,424.5)"/><path d="M 236 444v 6.5a 6.5 6.5, 0, 0, 0, 6.5 6.5h 6.5v -6.5a 6.5 6.5, 0, 0, 0, -6.5 -6.5" transform="rotate(90,242.5,450.5)"/><rect x="249" y="15" width="13" height="13" transform="rotate(0,255.5,21.5)"/><rect x="249" y="28" width="13" height="13" transform="rotate(0,255.5,34.5)"/><rect x="249" y="41" width="13" height="13" transform="rotate(0,255.5,47.5)"/><rect x="249" y="54" width="13" height="13" transform="rotate(0,255.5,60.5)"/><rect x="249" y="80" width="13" height="13" transform="rotate(0,255.5,86.5)"/><rect x="249" y="93" width="13" height="13" transform="rotate(0,255.5,99.5)"/><rect x="249" y="106" width="13" height="13" transform="rotate(0,255.5,112.5)"/><rect x="249" y="145" width="13" height="13" transform="rotate(0,255.5,151.5)"/><rect x="249" y="184" width="13" height="13" transform="rotate(0,255.5,190.5)"/><rect x="249" y="197" width="13" height="13" transform="rotate(0,255.5,203.5)"/><rect x="249" y="210" width="13" height="13" transform="rotate(0,255.5,216.5)"/><rect x="249" y="249" width="13" height="13" transform="rotate(0,255.5,255.5)"/><rect x="249" y="262" width="13" height="13" transform="rotate(0,255.5,268.5)"/><rect x="249" y="275" width="13" height="13" transform="rotate(0,255.5,281.5)"/><rect x="249" y="288" width="13" height="13" transform="rotate(0,255.5,294.5)"/><rect x="249" y="327" width="13" height="13" transform="rotate(0,255.5,333.5)"/><rect x="249" y="340" width="13" height="13" transform="rotate(0,255.5,346.5)"/><rect x="249" y="353" width="13" height="13" transform="rotate(0,255.5,359.5)"/><rect x="249" y="366" width="13" height="13" transform="rotate(0,255.5,372.5)"/><rect x="249" y="379" width="13" height="13" transform="rotate(0,255.5,385.5)"/><rect x="249" y="392" width="13" height="13" transform="rotate(0,255.5,398.5)"/><rect x="249" y="405" width="13" height="13" transform="rotate(0,255.5,411.5)"/><path d="M 249 431v 6.5a 6.5 6.5, 0, 0, 0, 6.5 6.5h 6.5v -6.5a 6.5 6.5, 0, 0, 0, -6.5 -6.5" transform="rotate(90,255.5,437.5)"/><path d="M 249 457v 13h 13v -6.5a 6.5 6.5, 0, 0, 0, -6.5 -6.5" transform="rotate(-90,255.5,463.5)"/><rect x="249" y="470" width="13" height="13" transform="rotate(0,255.5,476.5)"/><path d="M 249 483v 13h 13v -6.5a 6.5 6.5, 0, 0, 0, -6.5 -6.5" transform="rotate(90,255.5,489.5)"/><path d="M 262 54v 13h 13v -6.5a 6.5 6.5, 0, 0, 0, -6.5 -6.5" transform="rotate(90,268.5,60.5)"/><rect x="262" y="80" width="13" height="13" transform="rotate(0,268.5,86.5)"/><rect x="262" y="106" width="13" height="13" transform="rotate(0,268.5,112.5)"/><path d="M 262 132v 13h 13v -6.5a 6.5 6.5, 0, 0, 0, -6.5 -6.5" transform="rotate(-90,268.5,138.5)"/><rect x="262" y="145" width="13" height="13" transform="rotate(0,268.5,151.5)"/><path d="M 262 171v 13h 13v -6.5a 6.5 6.5, 0, 0, 0, -6.5 -6.5" transform="rotate(-90,268.5,177.5)"/><rect x="262" y="184" width="13" height="13" transform="rotate(0,268.5,190.5)"/><rect x="262" y="197" width="13" height="13" transform="rotate(0,268.5,203.5)"/><rect x="262" y="210" width="13" height="13" transform="rotate(0,268.5,216.5)"/><rect x="262" y="249" width="13" height="13" transform="rotate(0,268.5,255.5)"/><rect x="262" y="275" width="13" height="13" transform="rotate(0,268.5,281.5)"/><rect x="262" y="288" width="13" height="13" transform="rotate(0,268.5,294.5)"/><path d="M 262 301v 13h 13v -6.5a 6.5 6.5, 0, 0, 0, -6.5 -6.5" transform="rotate(90,268.5,307.5)"/><rect x="262" y="392" width="13" height="13" transform="rotate(0,268.5,398.5)"/><rect x="262" y="405" width="13" height="13" transform="rotate(0,268.5,411.5)"/><rect x="262" y="470" width="13" height="13" transform="rotate(0,268.5,476.5)"/><path d="M 275 28v 13h 13v -6.5a 6.5 6.5, 0, 0, 0, -6.5 -6.5" transform="rotate(-90,281.5,34.5)"/><path d="M 275 41v 13h 13v -6.5a 6.5 6.5, 0, 0, 0, -6.5 -6.5" transform="rotate(90,281.5,47.5)"/><rect x="275" y="80" width="13" height="13" transform="rotate(0,281.5,86.5)"/><rect x="275" y="93" width="13" height="13" transform="rotate(0,281.5,99.5)"/><rect x="275" y="106" width="13" height="13" transform="rotate(0,281.5,112.5)"/><rect x="275" y="119" width="13" height="13" transform="rotate(0,281.5,125.5)"/><rect x="275" y="132" width="13" height="13" transform="rotate(0,281.5,138.5)"/><rect x="275" y="145" width="13" height="13" transform="rotate(0,281.5,151.5)"/><path d="M 275 210v 13h 13v -6.5a 6.5 6.5, 0, 0, 0, -6.5 -6.5" transform="rotate(90,281.5,216.5)"/><path d="M 275 236v 13h 13v -6.5a 6.5 6.5, 0, 0, 0, -6.5 -6.5" transform="rotate(-90,281.5,242.5)"/><rect x="275" y="249" width="13" height="13" transform="rotate(0,281.5,255.5)"/><rect x="275" y="262" width="13" height="13" transform="rotate(0,281.5,268.5)"/><path d="M 275 275v 13h 13v -6.5a 6.5 6.5, 0, 0, 0, -6.5 -6.5" transform="rotate(90,281.5,281.5)"/><path d="M 275 314v 6.5a 6.5 6.5, 0, 0, 0, 6.5 6.5h 6.5v -6.5a 6.5 6.5, 0, 0, 0, -6.5 -6.5" transform="rotate(90,281.5,320.5)"/><path d="M 275 340v 13h 13v -6.5a 6.5 6.5, 0, 0, 0, -6.5 -6.5" transform="rotate(-90,281.5,346.5)"/><rect x="275" y="353" width="13" height="13" transform="rotate(0,281.5,359.5)"/><path d="M 275 366v 13h 13v -6.5a 6.5 6.5, 0, 0, 0, -6.5 -6.5" transform="rotate(90,281.5,372.5)"/><rect x="275" y="405" width="13" height="13" transform="rotate(0,281.5,411.5)"/><rect x="275" y="418" width="13" height="13" transform="rotate(0,281.5,424.5)"/><rect x="275" y="431" width="13" height="13" transform="rotate(0,281.5,437.5)"/><rect x="275" y="444" width="13" height="13" transform="rotate(0,281.5,450.5)"/><rect x="275" y="457" width="13" height="13" transform="rotate(0,281.5,463.5)"/><rect x="275" y="470" width="13" height="13" transform="rotate(0,281.5,476.5)"/><path d="M 275 483v 13h 13v -6.5a 6.5 6.5, 0, 0, 0, -6.5 -6.5" transform="rotate(90,281.5,489.5)"/><rect x="288" y="28" width="13" height="13" transform="rotate(0,294.5,34.5)"/><rect x="288" y="80" width="13" height="13" transform="rotate(0,294.5,86.5)"/><path d="M 288 119v 13h 13v -6.5a 6.5 6.5, 0, 0, 0, -6.5 -6.5" transform="rotate(90,294.5,125.5)"/><rect x="288" y="145" width="13" height="13" transform="rotate(0,294.5,151.5)"/><rect x="288" y="158" width="13" height="13" transform="rotate(0,294.5,164.5)"/><path d="M 288 223v 13h 13v -6.5a 6.5 6.5, 0, 0, 0, -6.5 -6.5" transform="rotate(-90,294.5,229.5)"/><path d="M 288 288v 13h 13v -6.5a 6.5 6.5, 0, 0, 0, -6.5 -6.5" transform="rotate(-90,294.5,294.5)"/><path d="M 288 301v 13h 13v -6.5a 6.5 6.5, 0, 0, 0, -6.5 -6.5" transform="rotate(90,294.5,307.5)"/><path d="M 288 327v 13h 13v -6.5a 6.5 6.5, 0, 0, 0, -6.5 -6.5" transform="rotate(-90,294.5,333.5)"/><rect x="288" y="340" width="13" height="13" transform="rotate(0,294.5,346.5)"/><path d="M 288 418v 13h 13v -6.5a 6.5 6.5, 0, 0, 0, -6.5 -6.5" transform="rotate(90,294.5,424.5)"/><path d="M 301 15v 13h 13v -6.5a 6.5 6.5, 0, 0, 0, -6.5 -6.5" transform="rotate(-90,307.5,21.5)"/><rect x="301" y="28" width="13" height="13" transform="rotate(0,307.5,34.5)"/><path d="M 301 41v 13h 13v -6.5a 6.5 6.5, 0, 0, 0, -6.5 -6.5" transform="rotate(90,307.5,47.5)"/><rect x="301" y="80" width="13" height="13" transform="rotate(0,307.5,86.5)"/><path d="M 301 93v 13h 13v -6.5a 6.5 6.5, 0, 0, 0, -6.5 -6.5" transform="rotate(90,307.5,99.5)"/><rect x="301" y="158" width="13" height="13" transform="rotate(0,307.5,164.5)"/><rect x="301" y="171" width="13" height="13" transform="rotate(0,307.5,177.5)"/><path d="M 301 184v 13h 13v -6.5a 6.5 6.5, 0, 0, 0, -6.5 -6.5" transform="rotate(90,307.5,190.5)"/><rect x="301" y="223" width="13" height="13" transform="rotate(0,307.5,229.5)"/><path d="M 301 249v 13h 13v -6.5a 6.5 6.5, 0, 0, 0, -6.5 -6.5" transform="rotate(-90,307.5,255.5)"/><rect x="301" y="262" width="13" height="13" transform="rotate(0,307.5,268.5)"/><path d="M 301 288v 13h 13v -6.5a 6.5 6.5, 0, 0, 0, -6.5 -6.5" transform="rotate(90,307.5,294.5)"/><path d="M 301 314v 13h 13v -6.5a 6.5 6.5, 0, 0, 0, -6.5 -6.5" transform="rotate(-90,307.5,320.5)"/><rect x="301" y="327" width="13" height="13" transform="rotate(0,307.5,333.5)"/><rect x="301" y="340" width="13" height="13" transform="rotate(0,307.5,346.5)"/><rect x="301" y="353" width="13" height="13" transform="rotate(0,307.5,359.5)"/><path d="M 301 366v 13h 13v -6.5a 6.5 6.5, 0, 0, 0, -6.5 -6.5" transform="rotate(90,307.5,372.5)"/><path d="M 301 405v 6.5a 6.5 6.5, 0, 0, 0, 6.5 6.5h 6.5v -6.5a 6.5 6.5, 0, 0, 0, -6.5 -6.5" transform="rotate(90,307.5,411.5)"/><path d="M 301 444v 13h 13v -6.5a 6.5 6.5, 0, 0, 0, -6.5 -6.5" transform="rotate(-90,307.5,450.5)"/><rect x="301" y="457" width="13" height="13" transform="rotate(0,307.5,463.5)"/><rect x="301" y="470" width="13" height="13" transform="rotate(0,307.5,476.5)"/><path d="M 301 483v 13h 13v -6.5a 6.5 6.5, 0, 0, 0, -6.5 -6.5" transform="rotate(90,307.5,489.5)"/><rect x="314" y="15" width="13" height="13" transform="rotate(0,320.5,21.5)"/><rect x="314" y="28" width="13" height="13" transform="rotate(0,320.5,34.5)"/><path d="M 314 67v 6.5a 6.5 6.5, 0, 0, 0, 6.5 6.5h 6.5v -6.5a 6.5 6.5, 0, 0, 0, -6.5 -6.5" transform="rotate(90,320.5,73.5)"/><path d="M 314 119v 13h 13v -6.5a 6.5 6.5, 0, 0, 0, -6.5 -6.5" transform="rotate(-90,320.5,125.5)"/><rect x="314" y="132" width="13" height="13" transform="rotate(0,320.5,138.5)"/><path d="M 314 145v 13h 13v -6.5a 6.5 6.5, 0, 0, 0, -6.5 -6.5" transform="rotate(90,320.5,151.5)"/><path d="M 314 223v 13h 13v -6.5a 6.5 6.5, 0, 0, 0, -6.5 -6.5" transform="rotate(90,320.5,229.5)"/><rect x="314" y="262" width="13" height="13" transform="rotate(0,320.5,268.5)"/><path d="M 314 275v 13h 13v -6.5a 6.5 6.5, 0, 0, 0, -6.5 -6.5" transform="rotate(90,320.5,281.5)"/><rect x="314" y="327" width="13" height="13" transform="rotate(0,320.5,333.5)"/><path d="M 314 340v 13h 13v -6.5a 6.5 6.5, 0, 0, 0, -6.5 -6.5" transform="rotate(90,320.5,346.5)"/><path d="M 314 418v 6.5a 6.5 6.5, 0, 0, 0, 6.5 6.5h 6.5v -6.5a 6.5 6.5, 0, 0, 0, -6.5 -6.5" transform="rotate(90,320.5,424.5)"/><rect x="327" y="28" width="13" height="13" transform="rotate(0,333.5,34.5)"/><rect x="327" y="41" width="13" height="13" transform="rotate(0,333.5,47.5)"/><path d="M 327 54v 13h 13v -6.5a 6.5 6.5, 0, 0, 0, -6.5 -6.5" transform="rotate(90,333.5,60.5)"/><path d="M 327 93v 13h 13v -6.5a 6.5 6.5, 0, 0, 0, -6.5 -6.5" transform="rotate(-90,333.5,99.5)"/><rect x="327" y="106" width="13" height="13" transform="rotate(0,333.5,112.5)"/><rect x="327" y="119" width="13" height="13" transform="rotate(0,333.5,125.5)"/><rect x="327" y="132" width="13" height="13" transform="rotate(0,333.5,138.5)"/><path d="M 327 158v 13h 13v -6.5a 6.5 6.5, 0, 0, 0, -6.5 -6.5" transform="rotate(-90,333.5,164.5)"/><path d="M 327 171v 13h 13v -6.5a 6.5 6.5, 0, 0, 0, -6.5 -6.5" transform="rotate(90,333.5,177.5)"/><rect x="327" y="262" width="13" height="13" transform="rotate(0,333.5,268.5)"/><path d="M 327 288v 13h 13v -6.5a 6.5 6.5, 0, 0, 0, -6.5 -6.5" transform="rotate(-90,333.5,294.5)"/><path d="M 327 314v 13h 13v -6.5a 6.5 6.5, 0, 0, 0, -6.5 -6.5" transform="rotate(-90,333.5,320.5)"/><path d="M 327 327v 13h 13v -6.5a 6.5 6.5, 0, 0, 0, -6.5 -6.5" transform="rotate(90,333.5,333.5)"/><path d="M 327 353v 6.5a 6.5 6.5, 0, 0, 0, 6.5 6.5h 6.5v -6.5a 6.5 6.5, 0, 0, 0, -6.5 -6.5" transform="rotate(90,333.5,359.5)"/><path d="M 327 392v 13h 13v -6.5a 6.5 6.5, 0, 0, 0, -6.5 -6.5" transform="rotate(-90,333.5,398.5)"/><path d="M 327 405v 13h 13v -6.5a 6.5 6.5, 0, 0, 0, -6.5 -6.5" transform="rotate(90,333.5,411.5)"/><path d="M 327 431v 13h 13v -6.5a 6.5 6.5, 0, 0, 0, -6.5 -6.5" transform="rotate(-90,333.5,437.5)"/><rect x="327" y="444" width="13" height="13" transform="rotate(0,333.5,450.5)"/><path d="M 327 457v 13h 13v -6.5a 6.5 6.5, 0, 0, 0, -6.5 -6.5" transform="rotate(90,333.5,463.5)"/><path d="M 327 483v 6.5a 6.5 6.5, 0, 0, 0, 6.5 6.5h 6.5v -6.5a 6.5 6.5, 0, 0, 0, -6.5 -6.5" transform="rotate(90,333.5,489.5)"/><path d="M 340 15v 13h 13v -6.5a 6.5 6.5, 0, 0, 0, -6.5 -6.5" transform="rotate(-90,346.5,21.5)"/><rect x="340" y="41" width="13" height="13" transform="rotate(0,346.5,47.5)"/><path d="M 340 67v 13h 13v -6.5a 6.5 6.5, 0, 0, 0, -6.5 -6.5" transform="rotate(-90,346.5,73.5)"/><rect x="340" y="80" width="13" height="13" transform="rotate(0,346.5,86.5)"/><rect x="340" y="119" width="13" height="13" transform="rotate(0,346.5,125.5)"/><rect x="340" y="132" width="13" height="13" transform="rotate(0,346.5,138.5)"/><path d="M 340 210v 13h 13v -6.5a 6.5 6.5, 0, 0, 0, -6.5 -6.5" transform="rotate(-90,346.5,216.5)"/><rect x="340" y="223" width="13" height="13" transform="rotate(0,346.5,229.5)"/><path d="M 340 236v 13h 13v -6.5a 6.5 6.5, 0, 0, 0, -6.5 -6.5" transform="rotate(90,346.5,242.5)"/><rect x="340" y="262" width="13" height="13" transform="rotate(0,346.5,268.5)"/><path d="M 340 288v 13h 13v -6.5a 6.5 6.5, 0, 0, 0, -6.5 -6.5" transform="rotate(90,346.5,294.5)"/><path d="M 340 366v 13h 13v -6.5a 6.5 6.5, 0, 0, 0, -6.5 -6.5" transform="rotate(-90,346.5,372.5)"/><path d="M 340 392v 13h 13v -6.5a 6.5 6.5, 0, 0, 0, -6.5 -6.5" transform="rotate(90,346.5,398.5)"/><path d="M 340 418v 13h 13v -6.5a 6.5 6.5, 0, 0, 0, -6.5 -6.5" transform="rotate(-90,346.5,424.5)"/><path d="M 340 444v 13h 13v -6.5a 6.5 6.5, 0, 0, 0, -6.5 -6.5" transform="rotate(90,346.5,450.5)"/><rect x="353" y="15" width="13" height="13" transform="rotate(0,359.5,21.5)"/><path d="M 353 41v 13h 13v -6.5a 6.5 6.5, 0, 0, 0, -6.5 -6.5" transform="rotate(90,359.5,47.5)"/><rect x="353" y="80" width="13" height="13" transform="rotate(0,359.5,86.5)"/><rect x="353" y="93" width="13" height="13" transform="rotate(0,359.5,99.5)"/><path d="M 353 106v 13h 13v -6.5a 6.5 6.5, 0, 0, 0, -6.5 -6.5" transform="rotate(90,359.5,112.5)"/><path d="M 353 132v 13h 13v -6.5a 6.5 6.5, 0, 0, 0, -6.5 -6.5" transform="rotate(90,359.5,138.5)"/><path d="M 353 184v 13h 13v -6.5a 6.5 6.5, 0, 0, 0, -6.5 -6.5" transform="rotate(-90,359.5,190.5)"/><rect x="353" y="197" width="13" height="13" transform="rotate(0,359.5,203.5)"/><rect x="353" y="210" width="13" height="13" transform="rotate(0,359.5,216.5)"/><path d="M 353 223v 13h 13v -6.5a 6.5 6.5, 0, 0, 0, -6.5 -6.5" transform="rotate(90,359.5,229.5)"/><rect x="353" y="262" width="13" height="13" transform="rotate(0,359.5,268.5)"/><path d="M 353 301v 13h 13v -6.5a 6.5 6.5, 0, 0, 0, -6.5 -6.5" transform="rotate(-90,359.5,307.5)"/><rect x="353" y="314" width="13" height="13" transform="rotate(0,359.5,320.5)"/><path d="M 353 327v 13h 13v -6.5a 6.5 6.5, 0, 0, 0, -6.5 -6.5" transform="rotate(90,359.5,333.5)"/><path d="M 353 353v 13h 13v -6.5a 6.5 6.5, 0, 0, 0, -6.5 -6.5" transform="rotate(-90,359.5,359.5)"/><rect x="353" y="366" width="13" height="13" transform="rotate(0,359.5,372.5)"/><path d="M 353 379v 13h 13v -6.5a 6.5 6.5, 0, 0, 0, -6.5 -6.5" transform="rotate(90,359.5,385.5)"/><path d="M 353 405v 13h 13v -6.5a 6.5 6.5, 0, 0, 0, -6.5 -6.5" transform="rotate(-90,359.5,411.5)"/><rect x="353" y="418" width="13" height="13" transform="rotate(0,359.5,424.5)"/><rect x="353" y="431" width="13" height="13" transform="rotate(0,359.5,437.5)"/><path d="M 353 470v 13h 13v -6.5a 6.5 6.5, 0, 0, 0, -6.5 -6.5" transform="rotate(-90,359.5,476.5)"/><rect x="353" y="483" width="13" height="13" transform="rotate(0,359.5,489.5)"/><rect x="366" y="15" width="13" height="13" transform="rotate(0,372.5,21.5)"/><path d="M 366 54v 6.5a 6.5 6.5, 0, 0, 0, 6.5 6.5h 6.5v -6.5a 6.5 6.5, 0, 0, 0, -6.5 -6.5" transform="rotate(90,372.5,60.5)"/><rect x="366" y="80" width="13" height="13" transform="rotate(0,372.5,86.5)"/><path d="M 366 145v 13h 13v -6.5a 6.5 6.5, 0, 0, 0, -6.5 -6.5" transform="rotate(-90,372.5,151.5)"/><path d="M 366 158v 13h 13v -6.5a 6.5 6.5, 0, 0, 0, -6.5 -6.5" transform="rotate(90,372.5,164.5)"/><rect x="366" y="210" width="13" height="13" transform="rotate(0,372.5,216.5)"/><path d="M 366 249v 13h 13v -6.5a 6.5 6.5, 0, 0, 0, -6.5 -6.5" transform="rotate(-90,372.5,255.5)"/><rect x="366" y="262" width="13" height="13" transform="rotate(0,372.5,268.5)"/><path d="M 366 288v 6.5a 6.5 6.5, 0, 0, 0, 6.5 6.5h 6.5v -6.5a 6.5 6.5, 0, 0, 0, -6.5 -6.5" transform="rotate(90,372.5,294.5)"/><rect x="366" y="314" width="13" height="13" transform="rotate(0,372.5,320.5)"/><path d="M 366 392v 13h 13v -6.5a 6.5 6.5, 0, 0, 0, -6.5 -6.5" transform="rotate(-90,372.5,398.5)"/><rect x="366" y="431" width="13" height="13" transform="rotate(0,372.5,437.5)"/><rect x="366" y="470" width="13" height="13" transform="rotate(0,372.5,476.5)"/><path d="M 366 483v 13h 13v -6.5a 6.5 6.5, 0, 0, 0, -6.5 -6.5" transform="rotate(90,372.5,489.5)"/><path d="M 379 15v 13h 13v -6.5a 6.5 6.5, 0, 0, 0, -6.5 -6.5" transform="rotate(90,385.5,21.5)"/><path d="M 379 67v 13h 13v -6.5a 6.5 6.5, 0, 0, 0, -6.5 -6.5" transform="rotate(-90,385.5,73.5)"/><rect x="379" y="80" width="13" height="13" transform="rotate(0,385.5,86.5)"/><path d="M 379 93v 13h 13v -6.5a 6.5 6.5, 0, 0, 0, -6.5 -6.5" transform="rotate(90,385.5,99.5)"/><path d="M 379 119v 13h 13v -6.5a 6.5 6.5, 0, 0, 0, -6.5 -6.5" transform="rotate(-90,385.5,125.5)"/><path d="M 379 171v 13h 13v -6.5a 6.5 6.5, 0, 0, 0, -6.5 -6.5" transform="rotate(-90,385.5,177.5)"/><path d="M 379 197v 13h 13v -6.5a 6.5 6.5, 0, 0, 0, -6.5 -6.5" transform="rotate(-90,385.5,203.5)"/><rect x="379" y="210" width="13" height="13" transform="rotate(0,385.5,216.5)"/><rect x="379" y="223" width="13" height="13" transform="rotate(0,385.5,229.5)"/><rect x="379" y="236" width="13" height="13" transform="rotate(0,385.5,242.5)"/><rect x="379" y="262" width="13" height="13" transform="rotate(0,385.5,268.5)"/><path d="M 379 275v 13h 13v -6.5a 6.5 6.5, 0, 0, 0, -6.5 -6.5" transform="rotate(90,385.5,281.5)"/><path d="M 379 301v 13h 13v -6.5a 6.5 6.5, 0, 0, 0, -6.5 -6.5" transform="rotate(-90,385.5,307.5)"/><rect x="379" y="314" width="13" height="13" transform="rotate(0,385.5,320.5)"/><path d="M 379 340v 13h 13v -6.5a 6.5 6.5, 0, 0, 0, -6.5 -6.5" transform="rotate(-90,385.5,346.5)"/><rect x="379" y="353" width="13" height="13" transform="rotate(0,385.5,359.5)"/><rect x="379" y="366" width="13" height="13" transform="rotate(0,385.5,372.5)"/><rect x="379" y="379" width="13" height="13" transform="rotate(0,385.5,385.5)"/><rect x="379" y="392" width="13" height="13" transform="rotate(0,385.5,398.5)"/><rect x="379" y="405" width="13" height="13" transform="rotate(0,385.5,411.5)"/><rect x="379" y="418" width="13" height="13" transform="rotate(0,385.5,424.5)"/><rect x="379" y="431" width="13" height="13" transform="rotate(0,385.5,437.5)"/><rect x="379" y="444" width="13" height="13" transform="rotate(0,385.5,450.5)"/><path d="M 379 457v 13h 13v -6.5a 6.5 6.5, 0, 0, 0, -6.5 -6.5" transform="rotate(90,385.5,463.5)"/><rect x="392" y="119" width="13" height="13" transform="rotate(0,398.5,125.5)"/><path d="M 392 132v 13h 13v -6.5a 6.5 6.5, 0, 0, 0, -6.5 -6.5" transform="rotate(90,398.5,138.5)"/><path d="M 392 158v 13h 13v -6.5a 6.5 6.5, 0, 0, 0, -6.5 -6.5" transform="rotate(-90,398.5,164.5)"/><path d="M 392 171v 13h 13v -6.5a 6.5 6.5, 0, 0, 0, -6.5 -6.5" transform="rotate(90,398.5,177.5)"/><path d="M 392 210v 13h 13v -6.5a 6.5 6.5, 0, 0, 0, -6.5 -6.5" transform="rotate(90,398.5,216.5)"/><path d="M 392 236v 13h 13v -6.5a 6.5 6.5, 0, 0, 0, -6.5 -6.5" transform="rotate(90,398.5,242.5)"/><rect x="392" y="262" width="13" height="13" transform="rotate(0,398.5,268.5)"/><path d="M 392 288v 13h 13v -6.5a 6.5 6.5, 0, 0, 0, -6.5 -6.5" transform="rotate(-90,398.5,294.5)"/><path d="M 392 314v 13h 13v -6.5a 6.5 6.5, 0, 0, 0, -6.5 -6.5" transform="rotate(90,398.5,320.5)"/><rect x="392" y="340" width="13" height="13" transform="rotate(0,398.5,346.5)"/><rect x="392" y="366" width="13" height="13" transform="rotate(0,398.5,372.5)"/><rect x="392" y="379" width="13" height="13" transform="rotate(0,398.5,385.5)"/><rect x="392" y="431" width="13" height="13" transform="rotate(0,398.5,437.5)"/><path d="M 392 470v 13h 13v -6.5a 6.5 6.5, 0, 0, 0, -6.5 -6.5" transform="rotate(-90,398.5,476.5)"/><path d="M 405 184v 6.5a 6.5 6.5, 0, 0, 0, 6.5 6.5h 6.5v -6.5a 6.5 6.5, 0, 0, 0, -6.5 -6.5" transform="rotate(90,411.5,190.5)"/><path d="M 405 223v 6.5a 6.5 6.5, 0, 0, 0, 6.5 6.5h 6.5v -6.5a 6.5 6.5, 0, 0, 0, -6.5 -6.5" transform="rotate(90,411.5,229.5)"/><path d="M 405 249v 13h 13v -6.5a 6.5 6.5, 0, 0, 0, -6.5 -6.5" transform="rotate(-90,411.5,255.5)"/><rect x="405" y="262" width="13" height="13" transform="rotate(0,411.5,268.5)"/><rect x="405" y="275" width="13" height="13" transform="rotate(0,411.5,281.5)"/><rect x="405" y="288" width="13" height="13" transform="rotate(0,411.5,294.5)"/><path d="M 405 327v 13h 13v -6.5a 6.5 6.5, 0, 0, 0, -6.5 -6.5" transform="rotate(-90,411.5,333.5)"/><rect x="405" y="340" width="13" height="13" transform="rotate(0,411.5,346.5)"/><rect x="405" y="353" width="13" height="13" transform="rotate(0,411.5,359.5)"/><rect x="405" y="379" width="13" height="13" transform="rotate(0,411.5,385.5)"/><path d="M 405 405v 6.5a 6.5 6.5, 0, 0, 0, 6.5 6.5h 6.5v -6.5a 6.5 6.5, 0, 0, 0, -6.5 -6.5" transform="rotate(90,411.5,411.5)"/><rect x="405" y="431" width="13" height="13" transform="rotate(0,411.5,437.5)"/><path d="M 405 444v 13h 13v -6.5a 6.5 6.5, 0, 0, 0, -6.5 -6.5" transform="rotate(90,411.5,450.5)"/><rect x="405" y="470" width="13" height="13" transform="rotate(0,411.5,476.5)"/><rect x="405" y="483" width="13" height="13" transform="rotate(0,411.5,489.5)"/><path d="M 418 145v 13h 13v -6.5a 6.5 6.5, 0, 0, 0, -6.5 -6.5" transform="rotate(-90,424.5,151.5)"/><rect x="418" y="158" width="13" height="13" transform="rotate(0,424.5,164.5)"/><path d="M 418 171v 13h 13v -6.5a 6.5 6.5, 0, 0, 0, -6.5 -6.5" transform="rotate(90,424.5,177.5)"/><path d="M 418 197v 13h 13v -6.5a 6.5 6.5, 0, 0, 0, -6.5 -6.5" transform="rotate(-90,424.5,203.5)"/><path d="M 418 210v 13h 13v -6.5a 6.5 6.5, 0, 0, 0, -6.5 -6.5" transform="rotate(90,424.5,216.5)"/><rect x="418" y="249" width="13" height="13" transform="rotate(0,424.5,255.5)"/><rect x="418" y="275" width="13" height="13" transform="rotate(0,424.5,281.5)"/><rect x="418" y="288" width="13" height="13" transform="rotate(0,424.5,294.5)"/><rect x="418" y="301" width="13" height="13" transform="rotate(0,424.5,307.5)"/><rect x="418" y="314" width="13" height="13" transform="rotate(0,424.5,320.5)"/><path d="M 418 327v 13h 13v -6.5a 6.5 6.5, 0, 0, 0, -6.5 -6.5" transform="rotate(90,424.5,333.5)"/><rect x="418" y="353" width="13" height="13" transform="rotate(0,424.5,359.5)"/><rect x="418" y="379" width="13" height="13" transform="rotate(0,424.5,385.5)"/><rect x="418" y="431" width="13" height="13" transform="rotate(0,424.5,437.5)"/><rect x="418" y="470" width="13" height="13" transform="rotate(0,424.5,476.5)"/><path d="M 418 483v 13h 13v -6.5a 6.5 6.5, 0, 0, 0, -6.5 -6.5" transform="rotate(90,424.5,489.5)"/><path d="M 431 119v 13h 13v -6.5a 6.5 6.5, 0, 0, 0, -6.5 -6.5" transform="rotate(-90,437.5,125.5)"/><rect x="431" y="145" width="13" height="13" transform="rotate(0,437.5,151.5)"/><rect x="431" y="158" width="13" height="13" transform="rotate(0,437.5,164.5)"/><path d="M 431 184v 13h 13v -6.5a 6.5 6.5, 0, 0, 0, -6.5 -6.5" transform="rotate(-90,437.5,190.5)"/><path d="M 431 197v 13h 13v -6.5a 6.5 6.5, 0, 0, 0, -6.5 -6.5" transform="rotate(90,437.5,203.5)"/><path d="M 431 223v 13h 13v -6.5a 6.5 6.5, 0, 0, 0, -6.5 -6.5" transform="rotate(-90,437.5,229.5)"/><rect x="431" y="236" width="13" height="13" transform="rotate(0,437.5,242.5)"/><rect x="431" y="249" width="13" height="13" transform="rotate(0,437.5,255.5)"/><rect x="431" y="262" width="13" height="13" transform="rotate(0,437.5,268.5)"/><path d="M 431 340v 13h 13v -6.5a 6.5 6.5, 0, 0, 0, -6.5 -6.5" transform="rotate(-90,437.5,346.5)"/><rect x="431" y="353" width="13" height="13" transform="rotate(0,437.5,359.5)"/><rect x="431" y="366" width="13" height="13" transform="rotate(0,437.5,372.5)"/><rect x="431" y="379" width="13" height="13" transform="rotate(0,437.5,385.5)"/><rect x="431" y="392" width="13" height="13" transform="rotate(0,437.5,398.5)"/><rect x="431" y="405" width="13" height="13" transform="rotate(0,437.5,411.5)"/><rect x="431" y="418" width="13" height="13" transform="rotate(0,437.5,424.5)"/><rect x="431" y="431" width="13" height="13" transform="rotate(0,437.5,437.5)"/><path d="M 431 457v 13h 13v -6.5a 6.5 6.5, 0, 0, 0, -6.5 -6.5" transform="rotate(-90,437.5,463.5)"/><rect x="444" y="119" width="13" height="13" transform="rotate(0,450.5,125.5)"/><rect x="444" y="132" width="13" height="13" transform="rotate(0,450.5,138.5)"/><rect x="444" y="145" width="13" height="13" transform="rotate(0,450.5,151.5)"/><rect x="444" y="158" width="13" height="13" transform="rotate(0,450.5,164.5)"/><path d="M 444 171v 13h 13v -6.5a 6.5 6.5, 0, 0, 0, -6.5 -6.5" transform="rotate(90,450.5,177.5)"/><path d="M 444 236v 13h 13v -6.5a 6.5 6.5, 0, 0, 0, -6.5 -6.5" transform="rotate(90,450.5,242.5)"/><rect x="444" y="262" width="13" height="13" transform="rotate(0,450.5,268.5)"/><rect x="444" y="275" width="13" height="13" transform="rotate(0,450.5,281.5)"/><rect x="444" y="288" width="13" height="13" transform="rotate(0,450.5,294.5)"/><path d="M 444 301v 13h 13v -6.5a 6.5 6.5, 0, 0, 0, -6.5 -6.5" transform="rotate(90,450.5,307.5)"/><path d="M 444 327v 13h 13v -6.5a 6.5 6.5, 0, 0, 0, -6.5 -6.5" transform="rotate(-90,450.5,333.5)"/><rect x="444" y="340" width="13" height="13" transform="rotate(0,450.5,346.5)"/><rect x="444" y="379" width="13" height="13" transform="rotate(0,450.5,385.5)"/><rect x="444" y="405" width="13" height="13" transform="rotate(0,450.5,411.5)"/><rect x="444" y="418" width="13" height="13" transform="rotate(0,450.5,424.5)"/><path d="M 444 431v 13h 13v -6.5a 6.5 6.5, 0, 0, 0, -6.5 -6.5" transform="rotate(90,450.5,437.5)"/><rect x="444" y="457" width="13" height="13" transform="rotate(0,450.5,463.5)"/><path d="M 457 119v 13h 13v -6.5a 6.5 6.5, 0, 0, 0, -6.5 -6.5" transform="rotate(90,463.5,125.5)"/><path d="M 457 145v 13h 13v -6.5a 6.5 6.5, 0, 0, 0, -6.5 -6.5" transform="rotate(90,463.5,151.5)"/><path d="M 457 184v 6.5a 6.5 6.5, 0, 0, 0, 6.5 6.5h 6.5v -6.5a 6.5 6.5, 0, 0, 0, -6.5 -6.5" transform="rotate(90,463.5,190.5)"/><rect x="457" y="262" width="13" height="13" transform="rotate(0,463.5,268.5)"/><path d="M 457 288v 13h 13v -6.5a 6.5 6.5, 0, 0, 0, -6.5 -6.5" transform="rotate(90,463.5,294.5)"/><path d="M 457 340v 13h 13v -6.5a 6.5 6.5, 0, 0, 0, -6.5 -6.5" transform="rotate(90,463.5,346.5)"/><rect x="457" y="379" width="13" height="13" transform="rotate(0,463.5,385.5)"/><rect x="457" y="392" width="13" height="13" transform="rotate(0,463.5,398.5)"/><rect x="457" y="418" width="13" height="13" transform="rotate(0,463.5,424.5)"/><path d="M 457 457v 13h 13v -6.5a 6.5 6.5, 0, 0, 0, -6.5 -6.5" transform="rotate(90,463.5,463.5)"/><path d="M 457 483v 13h 13v -6.5a 6.5 6.5, 0, 0, 0, -6.5 -6.5" transform="rotate(-90,463.5,489.5)"/><path d="M 470 132v 13h 13v -6.5a 6.5 6.5, 0, 0, 0, -6.5 -6.5" transform="rotate(-90,476.5,138.5)"/><path d="M 470 171v 13h 13v -6.5a 6.5 6.5, 0, 0, 0, -6.5 -6.5" transform="rotate(-90,476.5,177.5)"/><path d="M 470 197v 13h 13v -6.5a 6.5 6.5, 0, 0, 0, -6.5 -6.5" transform="rotate(-90,476.5,203.5)"/><rect x="470" y="210" width="13" height="13" transform="rotate(0,476.5,216.5)"/><rect x="470" y="262" width="13" height="13" transform="rotate(0,476.5,268.5)"/><path d="M 470 301v 13h 13v -6.5a 6.5 6.5, 0, 0, 0, -6.5 -6.5" transform="rotate(-90,476.5,307.5)"/><path d="M 470 327v 13h 13v -6.5a 6.5 6.5, 0, 0, 0, -6.5 -6.5" transform="rotate(-90,476.5,333.5)"/><path d="M 470 353v 13h 13v -6.5a 6.5 6.5, 0, 0, 0, -6.5 -6.5" transform="rotate(-90,476.5,359.5)"/><rect x="470" y="366" width="13" height="13" transform="rotate(0,476.5,372.5)"/><rect x="470" y="379" width="13" height="13" transform="rotate(0,476.5,385.5)"/><path d="M 470 392v 13h 13v -6.5a 6.5 6.5, 0, 0, 0, -6.5 -6.5" transform="rotate(90,476.5,398.5)"/><path d="M 470 418v 13h 13v -6.5a 6.5 6.5, 0, 0, 0, -6.5 -6.5" transform="rotate(90,476.5,424.5)"/><rect x="470" y="483" width="13" height="13" transform="rotate(0,476.5,489.5)"/><path d="M 483 132v 13h 13v -6.5a 6.5 6.5, 0, 0, 0, -6.5 -6.5" transform="rotate(90,489.5,138.5)"/><rect x="483" y="171" width="13" height="13" transform="rotate(0,489.5,177.5)"/><rect x="483" y="184" width="13" height="13" transform="rotate(0,489.5,190.5)"/><rect x="483" y="197" width="13" height="13" transform="rotate(0,489.5,203.5)"/><path d="M 483 210v 13h 13v -6.5a 6.5 6.5, 0, 0, 0, -6.5 -6.5" transform="rotate(90,489.5,216.5)"/><path d="M 483 236v 6.5a 6.5 6.5, 0, 0, 0, 6.5 6.5h 6.5v -6.5a 6.5 6.5, 0, 0, 0, -6.5 -6.5" transform="rotate(90,489.5,242.5)"/><rect x="483" y="262" width="13" height="13" transform="rotate(0,489.5,268.5)"/><rect x="483" y="275" width="13" height="13" transform="rotate(0,489.5,281.5)"/><rect x="483" y="288" width="13" height="13" transform="rotate(0,489.5,294.5)"/><path d="M 483 301v 13h 13v -6.5a 6.5 6.5, 0, 0, 0, -6.5 -6.5" transform="rotate(90,489.5,307.5)"/><rect x="483" y="327" width="13" height="13" transform="rotate(0,489.5,333.5)"/><rect x="483" y="340" width="13" height="13" transform="rotate(0,489.5,346.5)"/><path d="M 483 353v 13h 13v -6.5a 6.5 6.5, 0, 0, 0, -6.5 -6.5" transform="rotate(90,489.5,359.5)"/><path d="M 483 431v 6.5a 6.5 6.5, 0, 0, 0, 6.5 6.5h 6.5v -6.5a 6.5 6.5, 0, 0, 0, -6.5 -6.5" transform="rotate(90,489.5,437.5)"/><path d="M 483 457v 13h 13v -6.5a 6.5 6.5, 0, 0, 0, -6.5 -6.5" transform="rotate(-90,489.5,463.5)"/><rect x="483" y="470" width="13" height="13" transform="rotate(0,489.5,476.5)"/><path d="M 483 483v 13h 13v -6.5a 6.5 6.5, 0, 0, 0, -6.5 -6.5" transform="rotate(90,489.5,489.5)"/></clipPath><clipPath id="clip-path-corners-square-color-0-0"><path clip-rule="evenodd" d="M 15 15v 91h 91v -91zM 28 28h 65v 65h -65z" transform="rotate(0,60.5,60.5)"/></clipPath><clipPath id="clip-path-corners-dot-color-0-0"><rect x="41" y="41" width="39" height="39" transform="rotate(0,60.5,60.5)"/></clipPath><clipPath id="clip-path-corners-square-color-1-0"><path clip-rule="evenodd" d="M 405 15v 91h 91v -91zM 418 28h 65v 65h -65z" transform="rotate(90,450.5,60.5)"/></clipPath><clipPath id="clip-path-corners-dot-color-1-0"><rect x="431" y="41" width="39" height="39" transform="rotate(90,450.5,60.5)"/></clipPath><clipPath id="clip-path-corners-square-color-0-1"><path clip-rule="evenodd" d="M 15 405v 91h 91v -91zM 28 418h 65v 65h -65z" transform="rotate(-90,60.5,450.5)"/></clipPath><clipPath id="clip-path-corners-dot-color-0-1"><rect x="41" y="431" width="39" height="39" transform="rotate(-90,60.5,450.5)"/></clipPath></defs><rect x="0" y="0" height="512" width="512" clip-path="url('#clip-path-background-color')" fill="#fff6e5"/><rect x="0" y="0" height="512" width="512" clip-path="url('#clip-path-dot-color')" fill="#d1591d"/><rect x="15" y="15" height="91" width="91" clip-path="url('#clip-path-corners-square-color-0-0')" fill="#d1591d"/><rect x="41" y="41" height="39" width="39" clip-path="url('#clip-path-corners-dot-color-0-0')" fill="#d1591d"/><rect x="405" y="15" height="91" width="91" clip-path="url('#clip-path-corners-square-color-1-0')" fill="#d1591d"/><rect x="431" y="41" height="39" width="39" clip-path="url('#clip-path-corners-dot-color-1-0')" fill="#d1591d"/><rect x="15" y="405" height="91" width="91" clip-path="url('#clip-path-corners-square-color-0-1')" fill="#d1591d"/><rect x="41" y="431" height="39" width="39" clip-path="url('#clip-path-corners-dot-color-0-1')" fill="#d1591d"/></svg>